<svg xmlns="http://www.w3.org/2000/svg" xmlns:xlink="http://www.w3.org/1999/xlink" id="Layer_1" width="480.367" height="400" x="0" y="0" enable-background="new 0 0 480.367 400" version="1.1" viewBox="0 0 480.367 400" xml:space="preserve"><g><path fill="#FFF" d="M470.088,20.098c-0.447-5.943-5.363-10.643-11.421-10.643H21.334c-6.058,0-10.975,4.7-11.421,10.643 l-0.087,295.49c0,6.357,5.151,11.509,11.509,11.509h437.333c6.357,0,11.509-5.151,11.509-11.509L470.088,20.098z M451.762,271.854 H28.239V27.869h423.522V271.854z"/><path fill="#FFF" d="M313.657,382.338c-18.414-4.603-23.018-18.414-23.018-36.828v-4.604H240h-50.639v4.604 c0,18.414-4.604,32.225-23.018,36.828c-4.465,1.114-4.604,9.207,0,9.207H240h73.656 C318.26,391.545,318.122,383.452,313.657,382.338z"/></g><g><g><defs><rect id="SVGID_1_" width="175.455" height="175.455" x="38.637" y="38.545"/></defs><clipPath id="SVGID_2_"><use overflow="visible" xlink:href="#SVGID_1_"/></clipPath><g clip-path="url(#SVGID_2_)"><defs><rect id="SVGID_3_" width="175.455" height="175.455" x="38.637" y="38.545"/></defs><clipPath id="SVGID_4_"><use overflow="visible" xlink:href="#SVGID_3_"/></clipPath><g clip-path="url(#SVGID_4_)"><defs><rect id="SVGID_5_" width="175.455" height="175.455" x="38.637" y="38.545"/></defs><clipPath id="SVGID_6_"><use overflow="visible" xlink:href="#SVGID_5_"/></clipPath><g clip-path="url(#SVGID_6_)"><g><defs><rect id="SVGID_7_" width="176.989" height="172.878" x="37.979" y="41.987"/></defs><clipPath id="SVGID_8_"><use overflow="visible" xlink:href="#SVGID_7_"/></clipPath><g clip-path="url(#SVGID_8_)" opacity=".65"><g><defs><rect id="SVGID_9_" width="176.989" height="172.878" x="37.979" y="41.987"/></defs><clipPath id="SVGID_10_"><use overflow="visible" xlink:href="#SVGID_9_"/></clipPath></g></g></g></g></g><rect width="164.488" height="160.376" x="44.147" y="46.099" fill="#1C3A37" fill-rule="evenodd" clip-path="url(#SVGID_4_)" clip-rule="evenodd"/><g clip-path="url(#SVGID_4_)"><defs><rect id="SVGID_11_" width="175.455" height="175.455" x="38.637" y="38.545"/></defs><clipPath id="SVGID_12_"><use overflow="visible" xlink:href="#SVGID_11_"/></clipPath><g clip-path="url(#SVGID_12_)" opacity=".18"><g><defs><rect id="SVGID_13_" width="164.488" height="146.669" x="44.148" y="57.75"/></defs><clipPath id="SVGID_14_"><use overflow="visible" xlink:href="#SVGID_13_"/></clipPath><g clip-path="url(#SVGID_14_)"><defs><path id="SVGID_15_" d="M44.147,200.307h164.489v4.112H44.147V200.307z M44.147,182.487h164.489v4.112H44.147V182.487z M44.147,146.848h164.489v4.112H44.147V146.848z M44.147,129.029h164.489v4.112H44.147V129.029z M44.147,111.209h164.489 v4.112H44.147V111.209z M44.147,93.389h164.489v4.112H44.147V93.389z M44.147,75.57h164.489v4.112H44.147V75.57z M44.147,57.75h164.489v4.112H44.147V57.75z M44.147,164.668h164.489v4.112H44.147V164.668z"/></defs><clipPath id="SVGID_16_"><use overflow="visible" xlink:href="#SVGID_15_"/></clipPath><defs><filter id="Adobe_OpacityMaskFilter" width="164.489" height="146.669" x="44.147" y="57.75" filterUnits="userSpaceOnUse"><feColorMatrix type="matrix" values="1 0 0 0 0 0 1 0 0 0 0 0 1 0 0 0 0 0 1 0"/></filter></defs><mask id="SVGID_17_" width="164.489" height="146.669" x="44.147" y="57.75" maskUnits="userSpaceOnUse"><g filter="url(#Adobe_OpacityMaskFilter)"><linearGradient id="SVGID_18_" x1="-65.574" x2="-64.889" y1="-1.05" y2="-1.05" gradientTransform="matrix(239.9995 0 0 -239.9995 15781.9023 -120.9788)" gradientUnits="userSpaceOnUse"><stop offset="0" stop-color="#1A1A1A"/><stop offset=".483" stop-color="#FFF"/><stop offset="1" stop-color="#1A1A1A"/></linearGradient><rect width="164.489" height="146.669" x="44.147" y="57.75" fill="url(#SVGID_18_)" clip-path="url(#SVGID_16_)"/></g></mask><linearGradient id="SVGID_19_" x1="-65.574" x2="-64.889" y1="-1.05" y2="-1.05" gradientTransform="matrix(239.9995 0 0 -239.9995 15781.9033 -120.9788)" gradientUnits="userSpaceOnUse"><stop offset="0" stop-color="#42C1C7"/><stop offset=".483" stop-color="#42C1C7"/><stop offset="1" stop-color="#42C1C7"/></linearGradient><rect width="164.489" height="146.669" x="44.147" y="57.75" fill="url(#SVGID_19_)" clip-path="url(#SVGID_16_)" mask="url(#SVGID_17_)"/></g></g></g><g clip-path="url(#SVGID_12_)" opacity=".3"><g><defs><rect id="SVGID_20_" width="164.488" height="146.669" x="44.148" y="48.84"/></defs><clipPath id="SVGID_21_"><use overflow="visible" xlink:href="#SVGID_20_"/></clipPath><g clip-path="url(#SVGID_21_)"><defs><path id="SVGID_22_" d="M44.147,173.578h164.489v4.112H44.147V173.578z M44.147,191.397h164.489v4.112H44.147V191.397z M44.147,137.938h164.489v4.112H44.147V137.938z M44.147,155.758h164.489v4.112H44.147V155.758z M44.147,120.119h164.489 v4.112H44.147V120.119z M44.147,102.299h164.489v4.112H44.147V102.299z M44.147,84.48h164.489v4.112H44.147V84.48z M44.147,66.66h164.489v4.112H44.147V66.66z M44.147,48.84h164.489v4.112H44.147V48.84z"/></defs><clipPath id="SVGID_23_"><use overflow="visible" xlink:href="#SVGID_22_"/></clipPath><defs><filter id="Adobe_OpacityMaskFilter_1_" width="164.489" height="146.669" x="44.147" y="48.84" filterUnits="userSpaceOnUse"><feColorMatrix type="matrix" values="1 0 0 0 0 0 1 0 0 0 0 0 1 0 0 0 0 0 1 0"/></filter></defs><mask id="SVGID_24_" width="164.489" height="146.669" x="44.147" y="48.84" maskUnits="userSpaceOnUse"><g filter="url(#Adobe_OpacityMaskFilter_1_)"><linearGradient id="SVGID_25_" x1="-65.574" x2="-64.889" y1="-1.067" y2="-1.067" gradientTransform="matrix(239.9995 0 0 -239.9995 15781.9023 -133.9787)" gradientUnits="userSpaceOnUse"><stop offset="0" stop-color="#1A1A1A"/><stop offset=".483" stop-color="#FFF"/><stop offset="1" stop-color="#1A1A1A"/></linearGradient><rect width="164.489" height="146.669" x="44.147" y="48.84" fill="url(#SVGID_25_)" clip-path="url(#SVGID_23_)"/></g></mask><linearGradient id="SVGID_26_" x1="-65.574" x2="-64.889" y1="-1.067" y2="-1.067" gradientTransform="matrix(239.9995 0 0 -239.9995 15781.9033 -133.9787)" gradientUnits="userSpaceOnUse"><stop offset="0" stop-color="#42C1C7"/><stop offset=".483" stop-color="#42C1C7"/><stop offset="1" stop-color="#42C1C7"/></linearGradient><rect width="164.489" height="146.669" x="44.147" y="48.84" fill="url(#SVGID_26_)" clip-path="url(#SVGID_23_)" mask="url(#SVGID_24_)"/></g></g></g><path fill="#42C1C7" fill-rule="evenodd" d="M122.965,157.656 c0,0.659-0.219,0.995-0.774,1.213c-2.865,1.214-7.532,1.652-12.282,1.652c-17.21,0-32.439-11.254-32.439-37.736 c0-22.728,13.461-37.956,33.987-37.956c5.408,0,9.438,0.555,11.528,1.549c0.555,0.219,0.665,0.548,0.665,1.213v9.486 c0,0.884-0.439,0.884-0.774,0.774c-2.646-1.322-6.676-2.097-11.309-2.097c-12.912,0-21.521,9.821-21.521,26.702 c0,20.856,11.809,27.037,21.521,27.037c4.414,0,7.423-0.336,10.623-1.439c0.445-0.22,0.774-0.22,0.774,0.555V157.656z M175.389,132.168c0,17.209-8.828,28.353-22.617,28.353c-16.114,0-22.843-13.679-22.843-28.243 c0-16.114,8.608-28.025,22.952-28.025C167.336,104.253,175.389,115.616,175.389,132.168 M142.066,132.168 c0,10.588,3.748,17.984,10.814,17.984c6.066,0,10.37-5.847,10.37-17.765c0-10.041-2.975-17.875-10.699-17.875 C146.369,114.512,142.066,120.578,142.066,132.168" clip-path="url(#SVGID_12_)" clip-rule="evenodd"/></g></g></g></g></svg>